<?xml version="1.0" standalone="no"?>
<!DOCTYPE svg PUBLIC "-//W3C//DTD SVG 1.1//EN" "http://www.w3.org/Graphics/SVG/1.1/DTD/svg11.dtd" >
<svg xmlns="http://www.w3.org/2000/svg" xmlns:xlink="http://www.w3.org/1999/xlink" version="1.1">
<metadata></metadata>
<defs>
<font id="iconsregular" horiz-adv-x="1024" >
<font-face units-per-em="1024" ascent="960" descent="-64" />
<missing-glyph horiz-adv-x="512" />
<glyph horiz-adv-x="0" d="M0 0v0v0v0z" />
<glyph horiz-adv-x="0" d="M0 0v0v0v0z" />
<glyph horiz-adv-x="0" d="M0 0v0v0v0z" />
<glyph unicode=" " horiz-adv-x="512" d="M0 0v0v0v0z" />
<glyph unicode="&#x25fc;" horiz-adv-x="500" d="M0 0v0v0v0v0z" />
<glyph unicode="&#xe600;" d="M447 741q2 1 2 4t-2 5l-63 63q-2 2 -5 2t-4 -2l-204 -203q-2 -2 -2 -4.5t2 -4.5l204 -204q1 -1 4 -1t5 1l63 64q2 1 2 4t-2 5l-131 131q-2 1 -2 4t2 5l131 131v0zM648 813q-2 2 -4.5 2t-4.5 -2l-203 -203q-2 -2 -2 -4.5t2 -4.5l63 -63q2 -2 4.5 -2t4.5 2l131 130 q2 2 4.5 2t4.5 -2l58 -58q2 -2 2 -4.5t-2 -4.5l-130 -131q-2 -2 -2 -4.5t2 -4.5l63 -64q2 -1 4.5 -1t4.5 1l203 204q2 2 2 4.5t-2 4.5l-203 203v0zM292 215v-43h48v-20q-7 -6 -16.5 -9t-20.5 -3t-21 3.5t-18 11.5t-12 18t-4 21q0 12 4 22t12 18t18 12t21 4q12 0 21.5 -3.5 t17.5 -10.5q7 8 16 16.5t15 14.5q-14 14 -31.5 20.5t-38.5 6.5t-39.5 -7t-33.5 -22q-15 -14 -22.5 -31.5t-7.5 -39.5q0 -21 7.5 -38.5t22.5 -31.5t33.5 -21.5t40.5 -7.5q24 0 45.5 10.5t35.5 29.5l1 1v79h-94v0zM593 291l-32 -105l-31 105h-38l-30 -105l-33 105h-47l58 -193 h40l31 103l31 -103h40l58 193h-47zM654 291l-14 -44h57v-149h54v149h57v44h-154z" />
<glyph unicode="&#xe601;" d="M283 431q-2 2 -2 5.5t2 5.5l160 160q2 2 2 5.5t-2 5.5l-77 77q-2 2 -5.5 2t-5.5 -2l-248 -248q-2 -2 -2 -5.5t2 -5.5l248 -248q2 -2 5.5 -2t5.5 2l77 78q2 2 2 5t-2 6l-160 159v0zM936 442l-248 248q-2 3 -5.5 3t-5.5 -3l-247 -247q-3 -3 -3 -6t3 -5l77 -78q2 -2 5 -2 t6 2l159 160q2 2 5.5 2t5.5 -2l72 -72q2 -2 2 -5t-2 -6l-160 -159q-2 -3 -2 -6t2 -5l77 -78q2 -2 5.5 -2t5.5 2l248 248q2 3 2 6t-2 5v0z" />
<glyph unicode="&#xe602;" d="M506 606l-278 -278q-3 -3 -3 -6.5t3 -5.5l87 -87q2 -2 5.5 -2t6.5 2l179 179q2 3 6 3t6 -3l179 -179q3 -2 6.5 -2t5.5 2l87 87q2 3 2 6.5t-2 5.5l-278 278q-2 2 -6 2t-6 -2v0z" />
<glyph unicode="&#xe603;" d="M855 673l-101 101q-3 3 -7.5 3t-7.5 -3l-208 -208q-3 -3 -7.5 -3t-7.5 3l-209 208q-3 3 -7 3t-7 -3l-101 -101q-3 -3 -3 -7t3 -7l324 -324q3 -3 7.5 -3t7.5 3l324 324q3 3 3 7t-3 7v0zM844 332h-459v0v0h-183q-4 0 -7 -3t-3 -8v-142q0 -4 3 -7t7 -3h642q4 0 7 3t3 7v142 q0 5 -3 8t-7 3v0z" />
<glyph unicode="&#xe604;" d="M442 424q-14 0 -24.5 -14t-10.5 -35q0 -20 10.5 -34t24.5 -14q15 0 25 14t10 34t-10 34.5t-25 14.5v0zM649 375q0 -20 -10.5 -34t-24.5 -14q-15 0 -25 14t-10 34q0 21 10 35t25 14q14 0 24.5 -14t10.5 -35v0zM719 670l-34 -9t-89 -47q-12 3 -30 4.5t-38 1.5t-38 -1.5 t-30 -4.5q-55 38 -89 47l-34 9q-16 -41 -18 -76.5t1 -43.5q-18 -20 -29 -45.5t-11 -58.5q0 -73 25.5 -113t59.5 -58q34 -19 67.5 -22.5t48.5 -3.5h20h27h27.5h19.5q15 0 48.5 3.5t67.5 22.5q34 18 59.5 58t25.5 113q0 33 -10.5 58.5t-29.5 45.5q3 8 1 43.5t-18 76.5v0z M529 273h-2q-38 0 -71 3.5t-57 14.5q-25 12 -39 34t-14 59q0 17 7 33.5t21 29.5q25 23 65.5 19t87.5 -4h0.5h0.5v0h1q47 0 87 4t65 -19q15 -13 21.5 -29.5t6.5 -33.5q1 -37 -13 -59t-39 -34q-24 -11 -57 -14.5t-71 -3.5v0zM877 758l-40 -40q3 -3 5.5 -6.5t5.5 -6.5 q38 -52 58 -112t20 -125q0 -82 -31.5 -154.5t-85.5 -126.5t-126.5 -85.5t-154.5 -31.5t-154.5 31.5t-126.5 85.5t-85.5 126.5t-31.5 154.5q0 83 31.5 155.5t85.5 126.5t126.5 85t154.5 31q60 0 116.5 -17t105.5 -51q5 -3 10 -6.5t10 -7.5l40 40q-7 6 -14 11l-14 10 q-28 19 -58.5 33.5t-62.5 24.5t-65.5 14.5t-67.5 4.5q-93 0 -176 -35.5t-144 -97.5q-62 -61 -97.5 -144t-35.5 -176q0 -94 35.5 -177t97.5 -144q61 -62 144 -97.5t176 -35.5q94 0 176.5 35.5t144.5 97.5q62 61 97.5 143.5t35.5 176.5q0 37 -5.5 72.5t-17.5 69.5 q-11 35 -27.5 67t-38.5 61l-8 10l-8 10v0zM802 757l-16 14t-16 13l-2 -1l-23 -90l90 23l2 2q-8 11 -17 20.5t-18 18.5v0zM877 758l121 121l-66 67l-122 -122q8 -6 15.5 -13t14.5 -14q10 -9 19.5 -18.5t17.5 -20.5v0z" />
<glyph unicode="&#xe605;" d="M542 488l-287 287q-3 3 -6.5 3t-6.5 -3l-89 -89q-3 -3 -3 -7t3 -6l185 -185q3 -3 3 -6.5t-3 -5.5l-185 -185q-3 -3 -3 -6.5t3 -6.5l89 -89q3 -3 7 -3t6 3l287 287q2 2 2 5.5t-2 6.5v0zM903 488l-286 287q-3 3 -6.5 3t-6.5 -3l-89 -89q-3 -3 -3 -7t3 -6l185 -185 q2 -3 2 -6.5t-2 -5.5l-185 -185q-3 -3 -3 -6.5t3 -6.5l89 -89q3 -3 6.5 -3t6.5 3l286 287q3 2 3 5.5t-3 6.5v0z" />
<glyph unicode="&#xe606;" d="M236 433q-3 3 -3 6.5t3 6.5l188 188q3 3 3 7t-3 6l-91 91q-3 3 -6.5 3t-6.5 -3l-292 -292q-3 -3 -3 -6.5t3 -6.5l292 -292q3 -3 6.5 -3t6.5 3l91 91q3 3 3 7t-3 6l-188 188v0zM1005 446l-292 292q-3 3 -7 3t-6 -3l-91 -91q-3 -3 -3 -6.5t3 -6.5l188 -188q2 -3 2 -6.5 t-2 -6.5l-188 -188q-3 -2 -3 -6t3 -7l91 -91q2 -3 6 -3t7 3l292 292q2 3 2 7t-2 6v0zM564 440l78 79l-47 47l-79 -79l-78 79l-48 -47l79 -79l-79 -79l48 -47l78 78l79 -78l47 47z" />
<glyph unicode="&#xe607;" d="M428 634q3 3 3 7t-3 6l-91 91q-2 3 -6 3t-7 -3l-291 -292q-3 -3 -3 -6.5t3 -6.5l291 -292q3 -3 7 -3t7 3l90 91q3 3 3 7t-3 6l-188 188q-2 3 -2 6.5t2 6.5l188 188v0zM613 245q-3 -2 -3 -6t3 -7l91 -91q3 -3 6.5 -3t6.5 3l292 292q3 3 3 6.5t-3 6.5l-292 292q-3 3 -6.5 3 t-6.5 -3l-91 -91q-3 -3 -3 -6.5t3 -6.5l188 -188q3 -3 3 -6.5t-3 -6.5l-188 -188v0zM431 574h178v-63h-178v63v0zM431 368h178v-63h-178v63v0zM370 471h300v-63h-300v63v0z" />
<glyph unicode="&#xe608;" d="M237 438q-3 2 -3 6t3 7l188 188q3 3 3 6.5t-3 6.5l-91 91q-3 3 -6.5 3t-6.5 -3l-292 -292q-3 -3 -3 -7t3 -6l292 -292q3 -3 6.5 -3t6.5 3l91 91q3 2 3 6t-3 7l-188 188v0zM1005 451l-292 292q-2 2 -6 2t-7 -2l-91 -91q-2 -3 -2 -7t2 -6l188 -189q3 -2 3 -6t-3 -7 l-188 -188q-2 -3 -2 -6.5t2 -6.5l91 -90q3 -3 7 -3t6 3l292 292q3 2 3 6t-3 7v0zM643 475h-95v95h-62v-95h-95v-62h95v-95h62v95h95v62z" />
<glyph unicode="&#xe609;" d="M234 433q-3 3 -3 6.5t3 6.5l188 188q3 3 3 7t-3 6l-91 91q-3 3 -6.5 3t-6.5 -3l-292 -292q-3 -3 -3 -6.5t3 -6.5l292 -292q3 -3 6.5 -3t6.5 3l91 91q3 3 3 7t-3 6l-188 188v0zM1002 446l-292 292q-2 3 -6 3t-7 -3l-91 -91q-2 -3 -2 -6.5t2 -6.5l188 -188q3 -3 3 -6.5 t-3 -6.5l-188 -188q-2 -3 -2 -7t2 -6l91 -91q3 -3 7 -3t6 3l292 292q3 3 3 7t-3 6v0zM514 566q-52 0 -89 -37t-37 -89q0 -53 37 -90t89 -37t89 37t37 90q0 52 -37 89t-89 37v0zM514 376q-26 0 -45 18.5t-19 45.5q0 26 19 45t45 19q27 0 45.5 -19t18.5 -45q0 -27 -18.5 -45.5 t-45.5 -18.5v0z" />
<glyph unicode="&#xe60a;" d="M235 433q-3 3 -3 6.5t3 6.5l188 188q3 3 3 7t-3 6l-91 91q-3 3 -6.5 3t-6.5 -3l-292 -292q-3 -3 -3 -6.5t3 -6.5l292 -292q3 -3 6.5 -3t6.5 3l91 91q3 3 3 7t-3 6l-188 188v0zM1004 446l-292 292q-3 3 -7 3t-6 -3l-91 -91q-3 -3 -3 -6.5t3 -6.5l188 -188q2 -3 2 -6.5 t-2 -6.5l-188 -188q-3 -3 -3 -7t3 -6l91 -91q2 -3 6 -3t7 3l292 292q2 3 2 7t-2 6v0zM641 440q0 -52 -37 -89t-89 -37t-89 37t-37 89t37 89t89 37t89 -37t37 -89v0z" />
<glyph unicode="&#xe60b;" d="M237 438q-3 2 -3 6t3 7l188 188q3 3 3 6.5t-3 6.5l-91 91q-3 3 -6.5 3t-6.5 -3l-292 -293q-3 -2 -3 -6t3 -7l292 -292q3 -2 6.5 -2t6.5 2l91 91q3 3 3 7t-3 7l-188 188v0zM1005 450l-292 292q-2 3 -6 3t-7 -3l-91 -91q-2 -2 -2 -6t2 -7l188 -188q3 -3 3 -6.5t-3 -6.5 l-188 -188q-2 -3 -2 -6.5t2 -6.5l91 -91q3 -3 7 -3t6 3l292 292q3 3 3 7t-3 6v0zM568 369q0 -21 -15 -36t-36 -15t-36 15t-15 36t15 36t36 15t36 -15t15 -36v0zM568 519q0 -21 -15 -36t-36 -15t-36 15t-15 36t15 36t36 15t36 -15t15 -36v0z" />
<glyph unicode="&#xe60c;" d="M238 433q-3 3 -3 6.5t3 6.5l188 188q3 3 3 7t-3 6l-91 91q-2 3 -6 3t-7 -3l-292 -292q-2 -3 -2 -6.5t2 -6.5l292 -292q3 -3 7 -3t6 3l91 91q3 3 3 7t-3 6l-188 188v0zM1007 446l-292 292q-3 3 -6.5 3t-6.5 -3l-91 -91q-3 -2 -3 -6t3 -7l188 -188q3 -3 3 -6.5t-3 -6.5 l-188 -188q-3 -2 -3 -6t3 -7l91 -91q3 -3 6.5 -3t6.5 3l292 292q3 3 3 7t-3 6v0zM449 358q-1 -1 -1 -2.5t1 -2.5l38 -38q1 -1 2.5 -1t2.5 1l123 122q1 1 1 2.5t-1 3.5l-123 122q-1 1 -2.5 1t-2.5 -1l-38 -38q-1 -1 -1 -3t1 -3l79 -78q1 -1 1 -3t-1 -3l-79 -79v0z" />
<glyph unicode="&#xe60d;" d="M237 438q-3 2 -3 6t3 7l188 188q3 3 3 6.5t-3 6.5l-91 91q-3 3 -6.5 3t-6.5 -3l-292 -292q-3 -3 -3 -7t3 -6l292 -292q3 -3 6.5 -3t6.5 3l91 91q3 2 3 6t-3 7l-188 188v0zM1005 451l-292 292q-2 2 -6 2t-7 -2l-91 -91q-2 -3 -2 -7t2 -6l188 -189q3 -2 3 -6t-3 -7 l-188 -188q-2 -3 -2 -6.5t2 -6.5l91 -90q3 -3 7 -3t6 3l292 292q3 2 3 6t-3 7v0zM376 444l141 141l141 -141l-141 -141l-141 141v0z" />
<glyph unicode="&#xe60e;" d="M236 437q-2 3 -2 7t2 6l189 189q2 2 2 6t-2 7l-91 90q-3 3 -7 3t-7 -3l-291 -292q-3 -2 -3 -6t3 -7l291 -292q3 -2 7 -2t7 2l91 91q2 3 2 7t-2 7l-189 187v0zM1005 450l-292 292q-3 3 -6.5 3t-6.5 -3l-91 -91q-3 -2 -3 -6t3 -7l188 -188q3 -3 3 -6.5t-3 -6.5l-188 -188 q-3 -3 -3 -6.5t3 -6.5l91 -91q3 -3 6.5 -3t6.5 3l292 292q3 3 3 7t-3 6v0zM517 570q-53 0 -89.5 -37t-36.5 -89t37 -89t89 -37t89 37t37 89t-37 89t-89 37v0zM517 368q-32 0 -54 22.5t-22 53.5t22 53t54 22q31 0 53 -22t22 -53t-22 -53.5t-53 -22.5v0zM552 444 q0 -15 -10.5 -25t-24.5 -10q-15 0 -25 10t-10 25q0 14 10 24.5t25 10.5q14 0 24.5 -10.5t10.5 -24.5v0z" />
<glyph unicode="&#xe60f;" d="M240 433q-2 3 -2 6.5t2 6.5l188 188q3 3 3 7t-3 6l-90 91q-3 3 -7 3t-7 -3l-291 -292q-3 -3 -3 -6.5t3 -6.5l291 -292q3 -3 7 -3t7 3l90 91q3 3 3 7t-3 6l-188 188v0zM1009 446l-292 292q-3 3 -6.5 3t-6.5 -3l-91 -91q-3 -3 -3 -6.5t3 -6.5l188 -188q3 -3 3 -6.5t-3 -6.5 l-188 -188q-3 -3 -3 -7t3 -6l91 -91q3 -3 6.5 -3t6.5 3l292 292q3 3 3 7t-3 6v0zM431 574h178v-63h-178v63v0zM370 471h177v-63h-177v63v0z" />
<glyph unicode="&#xe802;" d="M159 452q15 -15 37.5 -15t37.5 15l222 221v-581q0 -23 15.5 -38.5t37.5 -15.5t37.5 15.5t15.5 38.5v582l228 -226q15 -15 37.5 -15t37.5 15q16 15 16 37.5t-16 38.5l-308 308q-1 2 -2.5 2.5t-2.5 1.5q-8 10 -19 16t-24 6t-24 -6t-18 -15h-0.5t-0.5 -1l-307 -308 q-16 -15 -16 -37.5t16 -38.5v0z" />
<glyph unicode="&#xe803;" d="M921 579q0 36 -26 62t-62 26q-20 0 -36.5 -7.5t-28.5 -21.5v0l-257 -280l-256 280q-12 14 -28.5 21.5t-36.5 7.5q-36 0 -62 -25.5t-26 -62.5q0 -17 6.5 -32t17.5 -27v0l321 -351q13 -13 30 -20.5t35 -7.5t35 7.5t30 20.5l320 351q11 11 17.5 26.5t6.5 32.5v0z" />
<glyph unicode="&#xe804;" d="M935 451q0 9 -4 18t-10 15q-2 1 -3 2t-3 2v1l-716 301v-1q-12 2 -23.5 -1.5t-18.5 -11.5q-10 -10 -12.5 -23t1.5 -25l-1 -1l189 -291l-168 -291l-5 -8l1 -1q-4 -13 -1 -26t13 -22q9 -8 20.5 -11.5t22.5 -0.5l1 -1l701 338v1q1 1 2 2.5t3 1.5q5 6 8 15t3 18v0zM432 423 q2 7 1.5 15t-2.5 15l1 1l-121 187l462 -194l-450 -217l105 184l5 9h-1v0z" />
<glyph unicode="&#xe806;" d="M448 596q-9 0 -19 -4.5t-16 -11.5q-6 -8 -8.5 -18t-2.5 -19q0 -26 15.5 -58t47.5 -32q10 0 19 4t15 10q9 9 11 19.5t2 17.5q0 27 -16 59.5t-48 32.5v0zM464 372q-3 0 -20 -1.5t-32 -6.5q-9 -3 -26.5 -14.5t-17.5 -37.5q0 -27 24 -44.5t65 -17.5q36 0 55 15.5t19 39.5 q0 19 -13 32.5t-42 33.5q-3 0 -5.5 0.5t-6.5 0.5v0zM512 756q-66 0 -123.5 -25t-100.5 -68q-44 -43 -68.5 -100.5t-24.5 -123.5t24.5 -123.5t68.5 -101.5q43 -43 100.5 -68t123.5 -25t123.5 25t100.5 68q44 44 68.5 101.5t24.5 123.5t-24.5 123.5t-68.5 100.5 q-43 43 -100.5 68t-123.5 25v0zM556 527q0 -28 -13 -43.5t-29 -28.5q-5 -5 -9.5 -10.5t-4.5 -13.5q0 -9 4 -14t9 -8l18 -14q16 -14 29 -29.5t13 -41.5q0 -35 -33.5 -65t-98.5 -30q-55 0 -82 22t-27 50q0 14 8.5 31t30.5 30q23 15 51 19t45 5q-5 6 -10 14t-5 20q0 6 1.5 10.5 t3.5 9.5q-4 -1 -8 -1h-8q-40 0 -62 24.5t-22 54.5q0 17 8 35t24 32q22 18 46 23t45 5h104l-33 -18h-31q9 -7 22.5 -23t13.5 -45v0zM727 432h-51v-54h-38v54h-52v37h52v54h38v-54h51v-37v0z" />
<glyph unicode="&#xe807;" d="M238 569h79v-236q0 -33 -18.5 -49t-49.5 -16q-30 0 -51 16t-21 49v67h-65.5h-64.5v-70q0 -44 16 -78.5t43 -58.5q28 -24 64.5 -36.5t78.5 -12.5t80 12.5t66 36.5q29 24 45.5 58.5t16.5 78.5v361h-219v-60v-62v0zM713 692h-203v-541h203q132 1 198 85t66 185t-66 185.5 t-198 85.5v0zM713 277h-65v288h65q65 0 97 -45t32 -99t-32 -99t-97 -45v0z" />
<glyph unicode="&#xe808;" d="M512 858q-84 0 -158.5 -32.5t-130.5 -87.5q-55 -56 -87.5 -130t-32.5 -159q0 -84 32.5 -158.5t87.5 -130.5q56 -55 130.5 -87.5t158.5 -32.5t158.5 32.5t130.5 87.5q55 56 87.5 130.5t32.5 158.5q0 85 -32.5 159t-87.5 130q-56 55 -130.5 87.5t-158.5 32.5v0zM546 645 v142q24 -14 49 -53.5t41 -88.5h-90v0zM652 587q6 -30 9 -56t5 -50h-120v106h106v0zM480 787v-142h-93q17 49 40 88t53 54v0zM480 587v-106h-122q2 24 5 50t9 56h108v0zM295 481h-127q2 24 9 53t18 53h111q-4 -30 -7 -56t-4 -50v0zM295 414q1 -31 4 -56.5t7 -49.5h-111 q-11 24 -18 49.5t-9 56.5h127v0zM358 414h123v-106h-109q-6 24 -9.5 53t-4.5 53v0zM480 242v-131q-30 14 -53 48t-40 83h93v0zM546 111v131h90q-16 -49 -41 -83t-49 -48v0zM546 308v106h120q-2 -24 -5 -53t-9 -53h-106v0zM729 414h127q-2 -31 -9 -56.5t-18 -49.5h-111 q4 24 7 49.5t4 56.5v0zM729 481q-1 24 -4 50t-7 56h111q11 -24 18 -53t9 -53h-127v0zM794 645h-91q-9 36 -22 64t-29 51q43 -19 79 -49t63 -66v0zM372 760q-16 -23 -29 -51t-22 -64h-91q27 36 63 66t79 49v0zM230 242h91q9 -31 22 -61.5t29 -54.5q-43 20 -79 49.5t-63 66.5 v0zM652 126q16 24 29 54.5t22 61.5h91q-27 -37 -63 -66.5t-79 -49.5v0z" />
<glyph unicode="&#xe809;" d="M522 141q-15 0 -27.5 7.5t-19.5 18.5l-237 403q-4 6 -6 13t-2 15q0 23 16.5 39t39.5 16h475q23 0 39 -16t16 -39q0 -8 -2 -15t-5 -13v0v0l-240 -403q-7 -11 -19 -18.5t-28 -7.5v0z" />
<glyph unicode="&#xe80c;" d="M891 178l-145 146q29 42 45.5 93t16.5 107q0 73 -27.5 137t-75.5 112t-112 75.5t-137 27.5t-137 -27.5t-112 -75.5t-75.5 -112t-27.5 -137t27.5 -137t75.5 -112t112 -75.5t137 -27.5q40 0 78 8.5t72 24.5l156 -156q13 -12 29 -19t34 -7t35 7t30 20q27 27 27 64.5 t-26 63.5v0zM245 524q0 43 16.5 81.5t45.5 67.5q28 29 66.5 45.5t82.5 16.5t82.5 -16.5t66.5 -45.5q29 -29 45.5 -67.5t16.5 -81.5q0 -44 -16.5 -82.5t-45.5 -67.5q-28 -28 -66.5 -45t-82.5 -17t-82.5 17t-66.5 45q-29 29 -45.5 67.5t-16.5 82.5v0z" />
<glyph unicode="&#xe80d;" d="M512 602q-64 0 -109 -45t-45 -109t45 -109t109 -45t109 45t45 109t-45 109t-109 45v0zM512 371q-31 0 -54 23t-23 54t23 54t54 23t54 -23t23 -54t-23 -54t-54 -23v0zM870 499h-29q-6 40 -22 77t-39 69l24 23q8 8 11.5 17.5t3.5 18.5q0 10 -3.5 19.5t-11.5 16.5 q-8 8 -17.5 11.5t-18.5 3.5q-10 0 -19.5 -3.5t-16.5 -11.5l-23 -24q-32 23 -68.5 38.5t-76.5 22.5v29q0 22 -14.5 37t-36.5 15q-21 0 -36 -15t-15 -37v-29q-40 -6 -77 -22t-69 -39l-23 24q-8 8 -17.5 11.5t-18.5 3.5q-10 0 -19.5 -3.5t-16.5 -11.5t-11 -17.5t-4 -18.5 q0 -10 4 -19.5t11 -16.5l24 -23q-23 -32 -38.5 -68.5t-22.5 -76.5h-30q-22 0 -37 -14.5t-15 -36.5q0 -21 15 -36t37 -15h29q6 -40 22 -77t39 -69l-24 -23q-8 -8 -11.5 -17.5t-3.5 -18.5q0 -10 3.5 -19.5t11.5 -16.5t17.5 -11t18.5 -4q10 0 19.5 4t16.5 11l23 24 q32 -23 68.5 -38.5t76.5 -22.5v-30q0 -22 14.5 -37t36.5 -15q21 0 36 15t15 37v29q40 6 77 22t68 39l23 -24q8 -8 17.5 -11.5t18.5 -3.5q10 0 19.5 3.5t16.5 11.5t11 17.5t4 18.5q0 10 -4 19.5t-11 16.5l-24 23q23 32 38.5 68.5t22.5 77.5h31q22 0 37 14.5t15 36.5t-15 36.5 t-37 14.5v0zM512 192q-53 0 -99.5 20t-81.5 55t-55 81.5t-20 99.5t20 99.5t55 81.5t81.5 55t99.5 20t99.5 -20t81.5 -55t55 -81.5t20 -99.5t-20 -99.5t-55 -81.5t-81.5 -55t-99.5 -20v0z" />
<glyph unicode="&#xe80f;" d="M510 776q-66 0 -123.5 -25t-100.5 -68q-43 -42 -67.5 -100t-24.5 -123t24.5 -123t67.5 -101q43 -42 100.5 -67t123.5 -25q65 0 122.5 25t100.5 67q43 43 68 100.5t25 123.5q0 65 -25 122.5t-68 100.5t-100.5 68t-122.5 25v0zM645 453q-11 -44 -48.5 -74t-85.5 -39t-97 6 t-83 61q26 -24 65 -25t67 29q-16 -3 -23.5 9t12.5 21q-18 -2 -29 5.5t-15 16.5q4 4 9.5 6.5t15.5 2.5q-21 5 -29.5 14.5t-10.5 21.5q5 1 11.5 2t10.5 1q-18 9 -25 21.5t-6 23.5q32 -12 53.5 -22t38.5 -19q6 -3 12.5 -8.5t14.5 -13.5q9 26 22 50t33 37q0 -3 -1.5 -6t-3.5 -5 q6 5 13 8.5t15 4.5q-1 -5 -7.5 -8.5t-11.5 -5.5q4 1 18.5 6.5t16.5 0.5q2 -6 -9 -9t-13 -4t-4.5 -1.5t-4.5 -1.5q26 2 47.5 -15.5t28.5 -43.5q1 -2 1.5 -4t0.5 -5q9 -3 23 -0.5t19 5.5q-4 -9 -14 -15.5t-25 -7.5q7 -3 19 -4.5t22 0.5q-6 -6 -16 -11t-27 -5v0z" />
</font>
</defs>
</svg>
